# xmcd
#
# Track frame offsets:
#	183
#	15883
#	28480
#	40190
#	54845
#	73683
#	89965
#	105013
#	118958
#	131905
#	147340
#	165253
#	177765
#	190215
#	203328
#	226523
#	239950
#
# Disc length: 3467 seconds
#
# Revision: 1
# Processed by: cddbd v1.4PL0 Copyright (c) Steve Scherf et al.
# Submitted via: audiograbber 1.80
#
DISCID=e30d8911
DTITLE=Asleep At The Wheel - The Very Best Of Asleep At The Wheel
DYEAR=1900
DGENRE=
TTITLE0=Cherokee Boogie
TTITLE1=I'll Never Get Out Of This World Alive
TTITLE2=Space Buggy
TTITLE3=The Letter Than Johnny Walker Read
TTITLE4=Let Me Go Home Whiskey
TTITLE5=Trouble In Mind
TTITLE6=Runnin' After Fools
TTITLE7=Miles And Miles Of Texas
TTITLE8=(Get Your Kicks On) Route 66
TTITLE9=My Babay Thinks She's A Train
TTITLE10=Am I High?
TTITLE11=Ragtime Annie
TTITLE12=Somebody Stole His Body
TTITLE13=When Love Goes Wrong
TTITLE14=Louisiana 1927
TTITLE15=Ain't Nobody Here But Us Chickens
TTITLE16=One O'Clock Jump
EXTD=
EXTT0=
EXTT1=
EXTT2=
EXTT3=
EXTT4=
EXTT5=
EXTT6=
EXTT7=
EXTT8=
EXTT9=
EXTT10=
EXTT11=
EXTT12=
EXTT13=
EXTT14=
EXTT15=
EXTT16=
PLAYORDER=
